<svg width="337" height="275" viewBox="0 0 337 275" fill="none" xmlns="http://www.w3.org/2000/svg">
<path d="M126.896 132.096C122.775 132.196 118.991 138.176 118.985 146.288C118.978 153.985 123.69 156.783 126.896 156.932C131.055 156.868 134.385 153.028 134.278 145.781C134.162 137.842 131.332 131.986 126.896 132.096Z" fill="black"/>
<path d="M202.896 132.096C198.775 132.196 194.991 138.176 194.985 146.288C194.978 153.985 199.69 156.783 202.896 156.932C207.055 156.868 210.385 153.028 210.278 145.781C210.162 137.842 207.332 131.986 202.896 132.096Z" fill="black"/>
<path d="M84.8422 114.781C50.2368 156.698 55.4061 180.849 55.3422 184.281C55.2782 187.713 59.7329 209.59 65.8593 218.781M248.842 114.781C270.596 133.738 285.406 171.349 283.842 188.781C282.278 206.213 277.779 211.036 274.071 218.781M65.8593 218.781C72.001 227.996 75.4062 233.349 84.8422 240.781C94.2782 248.213 120.842 268.808 173.842 268.781C214.75 268.761 246.278 247.713 254.842 240.781C263.406 233.849 270.164 226.941 274.071 218.781M65.8593 218.781C55.8509 232.761 51.2782 240.781 33.8422 240.781C16.4062 240.781 10.2782 229.213 6.84221 211.781C3.40619 194.349 10.827 171.016 22.8422 145.781C35.9948 118.618 45.9002 103.561 73.8422 76.7813C93.7339 57.6275 131.151 42.6412 137.342 43.2812C137.342 43.2812 142.023 35.2133 134.278 26.2133C126.534 17.2133 118.888 19.1666 110.342 18.7812C124.516 11.4083 131.635 9.30343 142.023 11.2076C151.063 13.8283 158.767 20.202 162.023 24.2077C165.278 28.2133 166.842 33.7813 166.842 33.7813C169.947 22.5146 169.778 24.2077 173.842 18.7812C177.906 13.3547 189.278 8.21331 198.842 6.78121C208.406 5.34911 214.278 6.21332 220.842 6.7812C227.406 7.34907 239.778 11.2076 239.778 11.2076C222.344 15.0419 213.342 16.2812 204.278 20.7133C195.214 25.1454 193.778 26.2133 188.842 31.7812C183.906 37.3491 191.406 44.8493 197.842 46.7813C204.278 48.7133 238.087 54.7548 266.842 76.7813C295.281 102.997 302.115 117.087 314.842 145.781C323.592 171.926 332.212 188.016 329.842 211.781C327.472 235.546 317.483 239.765 299.842 240.781C290.102 239.558 284.534 236.428 274.071 218.781M128.689 199.999C129.958 206.015 132.5 208.999 136.072 211.192C139.644 213.385 144.554 214.72 151 213.499C157.576 212.124 160.625 207.986 163.588 202.653C166.551 197.32 166.598 193.799 166.598 193.799C166.598 193.799 167.204 203.223 169 205.999C170.796 208.775 171.5 210.499 177.5 213.499C183.5 216.499 192.778 214.088 196.778 211.781C200.778 209.474 202.597 207.53 204.689 199.999M126.896 132.096C122.775 132.196 118.991 138.176 118.985 146.288C118.978 153.985 123.69 156.783 126.896 156.932C131.055 156.868 134.385 153.028 134.278 145.781C134.162 137.842 131.332 131.986 126.896 132.096ZM202.896 132.096C198.775 132.196 194.991 138.176 194.985 146.288C194.978 153.985 199.69 156.783 202.896 156.932C207.055 156.868 210.385 153.028 210.278 145.781C210.162 137.842 207.332 131.986 202.896 132.096Z" fill="none" stroke="black" stroke-width="12"/>
</svg>
